Coordinates
version=1
nRows=13
nColumns=36
inDegrees=yes

Units are S.I. units (second, meters, Newtons, ...)
If the header above contains a line with 'inDegrees', this indicates whether rotational values are in degrees (yes) or radians (no).

endheader
time	pelvis_tilt	pelvis_list	pelvis_rotation	pelvis_tx	pelvis_ty	pelvis_tz	hip_flexion_r	hip_adduction_r	hip_rotation_r	knee_angle_r	knee_angle_r_beta	ankle_angle_r	subtalar_angle_r	mtp_angle_r	hip_flexion_l	hip_adduction_l	hip_rotation_l	knee_angle_l	knee_angle_l_beta	ankle_angle_l	subtalar_angle_l	mtp_angle_l	lumbar_extension	lumbar_bending	lumbar_rotation	arm_flex_r	arm_add_r	arm_rot_r	elbow_flex_r	pro_sup_r	arm_flex_l	arm_add_l	arm_rot_l	elbow_flex_l	pro_sup_l
      3.28750000	    -15.19642404	     -0.22952776	      2.87640407	      0.27828203	      0.56304047	      0.00002310	     94.38862540	    -15.77306690	     12.08612653	    114.73732818	      2.00254415	     36.91023485	      0.60240955	     -7.49999987	     94.95403451	    -13.51290741	      9.81767895	    117.42842578	      2.04951267	     30.51254302	     -0.09700392	     -7.49999987	    -58.23631491	      3.99609503	     -2.38476367	    -13.99245136	     -0.22375583	     21.21262838	     16.57929870	     50.26456261	    -16.35615265	     -6.76175979	     16.79352123	     23.35236949	     41.46797669
      3.29166670	    -14.88972492	     -0.15922903	      3.03553540	      0.27939436	      0.57168971	     -0.00029442	     93.01165398	    -15.57452610	     11.79613341	    113.91807783	      1.98824554	     36.71419565	      0.12038683	     -7.49999987	     93.62537963	    -13.17192610	      9.79768084	    116.45027572	      2.03244073	     30.49024111	     -0.10319783	     -7.49999987	    -59.17930141	      4.17035435	     -2.24942656	    -11.93896858	     -0.52704908	     20.64120495	     17.19454011	     51.01173203	    -14.27534623	     -7.54042372	     15.85119741	     23.93492224	     42.79461298
      3.29583330	    -14.58941108	     -0.22084770	      3.06186848	      0.27984910	      0.57732767	      0.00078083	     91.70388294	    -15.23518791	     11.37799470	    113.11175672	      1.97417258	     36.46374451	     -0.55082931	     -7.49999987	     92.40924252	    -13.02641499	      9.91408626	    115.55034492	      2.01673397	     30.27922769	     -0.24513014	     -7.49999987	    -60.06110069	      4.18509967	     -1.98698827	    -10.08779540	     -0.65633652	     19.46008936	     17.07157236	     51.66907980	    -12.25357686	     -8.40656789	     13.63062031	     23.78981746	     44.52221733
      3.30000000	    -14.40494759	     -0.26736934	      3.21184377	      0.28308384	      0.58681128	     -0.00166572	     90.35601321	    -15.13701372	     10.93678544	    112.14330419	      1.95726989	     35.98837338	     -1.59422461	     -7.49999987	     91.02777144	    -12.62012491	      9.83893941	    114.44500548	      1.99744216	     30.07164664	     -0.42033193	     -7.49999987	    -60.93527250	      4.49990240	     -1.64963974	     -8.11220215	     -1.50708195	     19.39443469	     17.42530682	     51.56351890	     -9.92116884	     -9.48857346	     12.85409337	     24.11891537	     44.30205245
      3.30416670	    -14.51035949	     -0.38201496	      3.31414346	      0.28520494	      0.59255727	     -0.00305257	     89.21170992	    -15.07111542	     10.55773229	    111.08351589	      1.93877310	     35.81641599	     -2.08093646	     -7.49999987	     90.13389176	    -12.26321870	      9.75749451	    113.54972137	      1.98181650	     30.12371660	     -0.73704527	     -7.49999987	    -61.37763083	      4.69878947	     -1.12739763	     -6.53404504	     -2.59631243	     19.10559922	     18.15219441	     51.82346416	     -7.96468292	    -10.77407109	     11.81589921	     25.09599228	     44.73793145
      3.30833330	    -14.66127684	     -0.41947522	      3.26113213	      0.28516892	      0.59972652	     -0.00015789	     88.30726182	    -14.74179386	     10.30746967	    109.99812030	      1.91982937	     35.70514387	     -2.47688457	     -7.49999987	     89.26801923	    -12.12163279	      9.74223229	    112.52529378	      1.96393687	     29.98224476	     -1.04926381	     -7.49999987	    -61.93679415	      4.61167893	     -0.86903264	     -4.58961163	     -3.86393379	     18.49335821	     19.21845267	     52.58779456	     -5.99849320	    -12.48162968	     10.78811618	     26.63061270	     46.05025521
      3.31250000	    -14.88193364	     -0.56839867	      3.19934437	      0.28775447	      0.60464245	      0.00195772	     87.56340831	    -14.36352357	      9.78716776	    109.12336170	      1.90456195	     35.56107951	     -3.08217439	     -7.49999987	     88.66668045	    -12.13740174	      9.91034269	    111.66886802	      1.94898942	     29.99998820	     -0.92856945	     -7.49999987	    -61.89692230	      4.56689853	     -0.54933224	     -2.97903381	     -4.71785827	     15.42246780	     19.58429245	     52.59699579	     -4.03957975	    -13.24657714	      5.14458184	     27.11548935	     46.11183453
      3.31666670	    -15.11557692	     -0.50502491	      3.15209256	      0.28727691	      0.61171469	      0.00269736	     86.92607789	    -13.97403769	      9.53050723	    108.13722488	      1.88735062	     35.38282758	     -3.43163785	     -7.49999987	     87.94554009	    -12.13086785	      9.74376000	    110.57086968	      1.92982573	     29.82934142	     -1.15902757	     -7.49999987	    -62.04284570	      4.26357314	     -0.46336900	     -1.06539471	     -6.26706196	     14.70402551	     20.70227289	     53.16941180	     -2.02575002	    -15.06957844	      4.36816585	     28.80561246	     47.13808985
      3.32083330	    -15.38109938	     -0.27161870	      2.98371456	      0.28578739	      0.62224802	      0.00457298	     86.19576367	    -13.40451178	      9.49370282	    106.73728258	      1.86291702	     34.96957688	     -4.21081759	     -7.49999987	     87.07883619	    -12.22337698	      9.21419206	    109.13462387	      1.90475851	     29.52249642	     -1.29323693	     -7.49999987	    -62.19553400	      3.68894330	     -0.04797475	      0.34816929	     -6.88766919	      3.64739375	     23.22755763	     60.14795707	      0.78140713	    -16.05292352	     -1.09497006	     29.83685230	     51.61349057
      3.32500000	    -15.32405279	     -0.06742025	      2.84057052	      0.29155954	      0.62663901	      0.00132862	     85.25201077	    -13.20209893	      9.50786929	    105.67769935	      1.84442380	     34.56173682	     -4.62486486	     -7.49999987	     86.00247989	    -12.22704833	      8.75822283	    108.12961505	      1.88721780	     29.55183455	     -1.11132987	     -7.49999987	    -62.19030909	      3.33594920	      0.35273323	      1.41685560	     -8.05784573	     -4.34418775	     26.24419024	     65.81910994	      3.27235745	    -16.71089657	     -4.25711450	     31.48135505	     53.09863309
      3.32916670	    -15.05879378	      0.12386641	      2.71178875	      0.29563136	      0.63376598	     -0.00180764	     83.92739214	    -13.20896320	      9.59438707	    104.58671555	      1.82538254	     34.35350282	     -4.89275138	     -7.49999987	     84.59383894	    -12.13637359	      8.20560241	    107.25326555	      1.87192262	     29.47525116	     -1.32724126	     -7.49999987	    -62.40054699	      3.18944561	      0.31729203	      2.73325473	     -9.05238410	    -13.45945182	     30.12969003	     71.36477365	      5.46021608	    -16.83194875	     -8.16058012	     32.56277106	     54.68868483
      3.33333330	    -14.57189626	      0.25962304	      2.53817539	      0.29984773	      0.64075810	     -0.00393984	     82.39552626	    -13.34474039	      9.71799425	    103.59261057	      1.80803214	     34.24582476	     -5.08221136	     -7.49999987	     82.94821488	    -12.01185465	      7.74800034	    106.58478145	      1.86025537	     29.61390769	     -1.53713901	     -7.49999987	    -62.62707888	      3.08897227	      0.14321436	      4.30080908	     -9.77924679	    -20.89363860	     34.33062108	     70.21932705	      7.62763395	    -16.54753149	    -11.94636029	     33.75815124	     54.95870073
      3.33750000	    -14.04183992	      0.43859943	      2.46000398	      0.30401746	      0.64761673	     -0.00721956	     80.73030808	    -13.70424108	      9.89949779	    102.63141187	      1.79125605	     34.21383247	     -4.88445137	     -7.49999987	     81.24292587	    -11.75943374	      7.32719682	    105.93226687	      1.84886684	     29.83210537	     -1.71258891	     -7.49999987	    -63.01830181	      3.10119153	     -0.01292760	      5.95889264	    -10.38980496	    -28.17127611	     38.48556474	     70.19503145	      9.91645058	    -15.87382953	    -14.89128110	     34.34862557	     55.34530229
